{"title":"Dil_Ne_Dil_Se_Tujhe_Pukara_-_Janasheen_(1080p)_[Sbyky]","uid":7076346,"size":211423675,"categoryP":"video","categoryS":"music_videos","magnet":"?xt=urn:btih:cea01e608bfb054d71d1e2051709ee81843fdf9b&amp;dn=Dil_Ne_Dil_Se_Tujhe_Pukara_-_Janasheen_%281080p%29_%5BSbyky%5D&amp;tr=udp%3A%2F%2Ftracker.openbittorrent.com%3A80&amp;tr=udp%3A%2F%2Fopen.demonii.com%3A1337&amp;tr=udp%3A%2F%2Ftracker.coppersurfer.tk%3A6969&amp;tr=udp%3A%2F%2Fexodus.desync.com%3A6969","seeders":1,"leechers":0,"uploader":"Sbyky","files":-1,"time":1330861657,"description":" &lt;a href=&quot;http://www.shotpix.com/images/08170901817074153158.jpg&quot; rel=&quot;nofollow&quot; target=&quot;_NEW&quot;&gt;http://www.shotpix.com/images/08170901817074153158.jpg&lt;/a&gt;\n\nGeneral\nName                     \t         : Dil Ne Dil Se Tujhe Pukara - Janasheen.avi\nFormat                                   : AVI\nFormat/Info                              : Audio Video Interleave\nFile size                                : 202 MiB\nDuration                                 : 6mn 16s\nOverall bit rate                         : 4 492 Kbps\n\nVideo\nID                                       : 0\nFormat                                   : AVC\nFormat/Info                              : Advanced Video Codec\nFormat profile                           : &lt;a class=&quot;__cf_email__&quot; href=&quot;/cdn-cgi/l/email-protection&quot; data-cfemail=&quot;460b272f28060a736877&quot;&gt;[email&amp;#160;protected]&lt;/a&gt;&lt;script cf-hash='f9e31' type=&quot;text/javascript&quot;&gt;\n/* &lt;![CDATA[ */!function(){try{var t=&quot;currentScript&quot;in document?document.currentScript:function(){for(var t=document.getElementsByTagName(&quot;script&quot;),e=t.length;e--;)if(t[e].getAttribute(&quot;cf-hash&quot;))return t[e]}();if(t&amp;&amp;t.previousSibling){var e,r,n,i,c=t.previousSibling,a=c.getAttribute(&quot;data-cfemail&quot;);if(a){for(e=&quot;&quot;,r=parseInt(a.substr(0,2),16),n=2;a.length-n;n+=2)i=parseInt(a.substr(n,2),16)^r,e+=String.fromCharCode(i);e=document.createTextNode(e),c.parentNode.replaceChild(e,c)}}}catch(u){}}();/* ]]&gt; */&lt;/script&gt;\nFormat settings, CABAC                   : Yes\nFormat settings, ReFrames                : 2 frames\nCodec ID                                 : H264\nDuration                                 : 6mn 16s\nBit rate                                 : 4 228 Kbps\nWidth                                    : 1 920 pixels\nHeight                                   : 1 080 pixels\nDisplay aspect ratio                     : 16:9\nFrame rate                               : 25.000 fps\nColor space                              : YUV\nChroma subsampling                       : 4:2:0\nBit depth                                : 8 bits\nScan type                                : Progressive\nBits/(Pixel*Frame)                       : 0.082\nStream size                              : 190 MiB (94%)\n\nAudio\nID                                       : 1\nFormat                                   : MPEG Audio\nFormat version                           : Version 1\nFormat profile                           : Layer 3\nCodec ID                                 : 55\nCodec ID/Hint                            : MP3\nDuration                                 : 6mn 16s\nBit rate mode                            : Constant\nBit rate                                 : 256 Kbps\nChannel(s)                               : 2 channels\nSampling rate                            : 44.1 KHz\nCompression mode                         : Lossy\nStream size                              : 11.5 MiB (6%)\nAlignment                                : Split accross interleaves\nInterleave, duration                     : 40 ms (1.00 video frame)\nInterleave, preload duration             : 129 ms\n &lt;a href=&quot;\nhttp://www.shotpix.com/images/28486342601007912088.gif&quot; rel=&quot;nofollow&quot; target=&quot;_NEW&quot;&gt;\nhttp://www.shotpix.com/images/28486342601007912088.gif&lt;/a&gt;\n","torrent":{"xt":"urn:btih:cea01e608bfb054d71d1e2051709ee81843fdf9b","amp;dn":"Dil_Ne_Dil_Se_Tujhe_Pukara_-_Janasheen_%281080p%29_%5BSbyky%5D","amp;tr":["udp%3A%2F%2Ftracker.openbittorrent.com%3A80","udp%3A%2F%2Fopen.demonii.com%3A1337","udp%3A%2F%2Ftracker.coppersurfer.tk%3A6969","udp%3A%2F%2Fexodus.desync.com%3A6969"],"infoHash":"cea01e608bfb054d71d1e2051709ee81843fdf9b","infoHashBuffer":{"type":"Buffer","data":[206,160,30,96,139,251,5,77,113,209,226,5,23,9,238,129,132,63,223,155]},"announce":[],"urlList":[]}}